<mxfile host="app.diagrams.net" agent="Mozilla/5.0 (Windows NT 10.0; Win64; x64) AppleWebKit/537.36 (KHTML, like Gecko) Chrome/139.0.0.0 Safari/537.36 Edg/139.0.0.0" version="28.1.1">
  <diagram name="Page-1" id="tlizApVb3Lmp3QC3Klox">
    <mxGraphModel dx="1034" dy="570" grid="1" gridSize="10" guides="1" tooltips="1" connect="1" arrows="1" fold="1" page="1" pageScale="1" pageWidth="850" pageHeight="1100" math="0" shadow="0">
      <root>
        <mxCell id="0" />
        <mxCell id="1" parent="0" />
        <mxCell id="IFPszP2dh0mQ25aJr4DG-1" value="The Command Pattern turns a request into a standalone object that contains all the information about the request -- such as the method to call, the method&#39;s arguments, and theÂ object that owns the method.&#xa;&#xa;Purpose:&#xa;- Encapsulate a request as an object.&#xa;- Allows you to parameterize clients with different requests, queue or log requests, and support undoable operations." style="text;whiteSpace=wrap;fontSize=14;" vertex="1" parent="1">
          <mxGeometry x="40" y="40" width="800" height="120" as="geometry" />
        </mxCell>
        <mxCell id="IFPszP2dh0mQ25aJr4DG-2" value="&lt;b&gt;Key Participants&lt;/b&gt;" style="text;html=1;align=left;verticalAlign=middle;whiteSpace=wrap;rounded=0;fontSize=14;" vertex="1" parent="1">
          <mxGeometry x="40" y="170" width="800" height="30" as="geometry" />
        </mxCell>
        <mxCell id="IFPszP2dh0mQ25aJr4DG-3" value="" style="shape=table;startSize=0;container=1;collapsible=0;childLayout=tableLayout;" vertex="1" parent="1">
          <mxGeometry x="40" y="200" width="760" height="240" as="geometry" />
        </mxCell>
        <mxCell id="IFPszP2dh0mQ25aJr4DG-4" value="" style="shape=tableRow;horizontal=0;startSize=0;swimlaneHead=0;swimlaneBody=0;strokeColor=inherit;top=0;left=0;bottom=0;right=0;collapsible=0;dropTarget=0;fillColor=none;points=[[0,0.5],[1,0.5]];portConstraint=eastwest;" vertex="1" parent="IFPszP2dh0mQ25aJr4DG-3">
          <mxGeometry width="760" height="40" as="geometry" />
        </mxCell>
        <mxCell id="IFPszP2dh0mQ25aJr4DG-5" value="&lt;font style=&quot;font-size: 14px;&quot;&gt;Role&lt;/font&gt;" style="shape=partialRectangle;html=1;whiteSpace=wrap;connectable=0;strokeColor=inherit;overflow=hidden;fillColor=none;top=0;left=0;bottom=0;right=0;pointerEvents=1;" vertex="1" parent="IFPszP2dh0mQ25aJr4DG-4">
          <mxGeometry width="140" height="40" as="geometry">
            <mxRectangle width="140" height="40" as="alternateBounds" />
          </mxGeometry>
        </mxCell>
        <mxCell id="IFPszP2dh0mQ25aJr4DG-6" value="&lt;font style=&quot;font-size: 14px;&quot;&gt;Description&lt;/font&gt;" style="shape=partialRectangle;html=1;whiteSpace=wrap;connectable=0;strokeColor=inherit;overflow=hidden;fillColor=none;top=0;left=0;bottom=0;right=0;pointerEvents=1;" vertex="1" parent="IFPszP2dh0mQ25aJr4DG-4">
          <mxGeometry x="140" width="620" height="40" as="geometry">
            <mxRectangle width="620" height="40" as="alternateBounds" />
          </mxGeometry>
        </mxCell>
        <mxCell id="IFPszP2dh0mQ25aJr4DG-7" value="" style="shape=tableRow;horizontal=0;startSize=0;swimlaneHead=0;swimlaneBody=0;strokeColor=inherit;top=0;left=0;bottom=0;right=0;collapsible=0;dropTarget=0;fillColor=none;points=[[0,0.5],[1,0.5]];portConstraint=eastwest;" vertex="1" parent="IFPszP2dh0mQ25aJr4DG-3">
          <mxGeometry y="40" width="760" height="40" as="geometry" />
        </mxCell>
        <mxCell id="IFPszP2dh0mQ25aJr4DG-8" value="Command" style="shape=partialRectangle;html=1;whiteSpace=wrap;connectable=0;strokeColor=inherit;overflow=hidden;fillColor=none;top=0;left=0;bottom=0;right=0;pointerEvents=1;fontSize=14;align=left;" vertex="1" parent="IFPszP2dh0mQ25aJr4DG-7">
          <mxGeometry width="140" height="40" as="geometry">
            <mxRectangle width="140" height="40" as="alternateBounds" />
          </mxGeometry>
        </mxCell>
        <mxCell id="IFPszP2dh0mQ25aJr4DG-9" value="&lt;font style=&quot;font-size: 14px;&quot;&gt;Declares an interface for all commands.&lt;/font&gt;" style="shape=partialRectangle;html=1;whiteSpace=wrap;connectable=0;strokeColor=inherit;overflow=hidden;fillColor=none;top=0;left=0;bottom=0;right=0;pointerEvents=1;align=left;" vertex="1" parent="IFPszP2dh0mQ25aJr4DG-7">
          <mxGeometry x="140" width="620" height="40" as="geometry">
            <mxRectangle width="620" height="40" as="alternateBounds" />
          </mxGeometry>
        </mxCell>
        <mxCell id="IFPszP2dh0mQ25aJr4DG-10" value="" style="shape=tableRow;horizontal=0;startSize=0;swimlaneHead=0;swimlaneBody=0;strokeColor=inherit;top=0;left=0;bottom=0;right=0;collapsible=0;dropTarget=0;fillColor=none;points=[[0,0.5],[1,0.5]];portConstraint=eastwest;" vertex="1" parent="IFPszP2dh0mQ25aJr4DG-3">
          <mxGeometry y="80" width="760" height="40" as="geometry" />
        </mxCell>
        <mxCell id="IFPszP2dh0mQ25aJr4DG-11" value="Concrete Command" style="shape=partialRectangle;html=1;whiteSpace=wrap;connectable=0;strokeColor=inherit;overflow=hidden;fillColor=none;top=0;left=0;bottom=0;right=0;pointerEvents=1;fontSize=14;align=left;" vertex="1" parent="IFPszP2dh0mQ25aJr4DG-10">
          <mxGeometry width="140" height="40" as="geometry">
            <mxRectangle width="140" height="40" as="alternateBounds" />
          </mxGeometry>
        </mxCell>
        <mxCell id="IFPszP2dh0mQ25aJr4DG-12" value="&lt;font style=&quot;font-size: 14px;&quot;&gt;Implements the Command interface; defines the binding between the Receiver and the action.&lt;/font&gt;" style="shape=partialRectangle;html=1;whiteSpace=wrap;connectable=0;strokeColor=inherit;overflow=hidden;fillColor=none;top=0;left=0;bottom=0;right=0;pointerEvents=1;align=left;" vertex="1" parent="IFPszP2dh0mQ25aJr4DG-10">
          <mxGeometry x="140" width="620" height="40" as="geometry">
            <mxRectangle width="620" height="40" as="alternateBounds" />
          </mxGeometry>
        </mxCell>
        <mxCell id="IFPszP2dh0mQ25aJr4DG-13" value="" style="shape=tableRow;horizontal=0;startSize=0;swimlaneHead=0;swimlaneBody=0;strokeColor=inherit;top=0;left=0;bottom=0;right=0;collapsible=0;dropTarget=0;fillColor=none;points=[[0,0.5],[1,0.5]];portConstraint=eastwest;" vertex="1" parent="IFPszP2dh0mQ25aJr4DG-3">
          <mxGeometry y="120" width="760" height="40" as="geometry" />
        </mxCell>
        <mxCell id="IFPszP2dh0mQ25aJr4DG-14" value="&lt;font style=&quot;font-size: 14px;&quot;&gt;Receiver&lt;/font&gt;" style="shape=partialRectangle;html=1;whiteSpace=wrap;connectable=0;strokeColor=inherit;overflow=hidden;fillColor=none;top=0;left=0;bottom=0;right=0;pointerEvents=1;align=left;" vertex="1" parent="IFPszP2dh0mQ25aJr4DG-13">
          <mxGeometry width="140" height="40" as="geometry">
            <mxRectangle width="140" height="40" as="alternateBounds" />
          </mxGeometry>
        </mxCell>
        <mxCell id="IFPszP2dh0mQ25aJr4DG-15" value="Knows how to perform the operation." style="shape=partialRectangle;html=1;whiteSpace=wrap;connectable=0;strokeColor=inherit;overflow=hidden;fillColor=none;top=0;left=0;bottom=0;right=0;pointerEvents=1;align=left;fontSize=14;" vertex="1" parent="IFPszP2dh0mQ25aJr4DG-13">
          <mxGeometry x="140" width="620" height="40" as="geometry">
            <mxRectangle width="620" height="40" as="alternateBounds" />
          </mxGeometry>
        </mxCell>
        <mxCell id="IFPszP2dh0mQ25aJr4DG-16" value="" style="shape=tableRow;horizontal=0;startSize=0;swimlaneHead=0;swimlaneBody=0;strokeColor=inherit;top=0;left=0;bottom=0;right=0;collapsible=0;dropTarget=0;fillColor=none;points=[[0,0.5],[1,0.5]];portConstraint=eastwest;" vertex="1" parent="IFPszP2dh0mQ25aJr4DG-3">
          <mxGeometry y="160" width="760" height="40" as="geometry" />
        </mxCell>
        <mxCell id="IFPszP2dh0mQ25aJr4DG-17" value="&lt;font style=&quot;font-size: 14px;&quot;&gt;Invoker&lt;/font&gt;" style="shape=partialRectangle;html=1;whiteSpace=wrap;connectable=0;strokeColor=inherit;overflow=hidden;fillColor=none;top=0;left=0;bottom=0;right=0;pointerEvents=1;align=left;" vertex="1" parent="IFPszP2dh0mQ25aJr4DG-16">
          <mxGeometry width="140" height="40" as="geometry">
            <mxRectangle width="140" height="40" as="alternateBounds" />
          </mxGeometry>
        </mxCell>
        <mxCell id="IFPszP2dh0mQ25aJr4DG-18" value="Asks the command to carry out the request." style="shape=partialRectangle;html=1;whiteSpace=wrap;connectable=0;strokeColor=inherit;overflow=hidden;fillColor=none;top=0;left=0;bottom=0;right=0;pointerEvents=1;align=left;fontSize=14;" vertex="1" parent="IFPszP2dh0mQ25aJr4DG-16">
          <mxGeometry x="140" width="620" height="40" as="geometry">
            <mxRectangle width="620" height="40" as="alternateBounds" />
          </mxGeometry>
        </mxCell>
        <mxCell id="IFPszP2dh0mQ25aJr4DG-19" value="" style="shape=tableRow;horizontal=0;startSize=0;swimlaneHead=0;swimlaneBody=0;strokeColor=inherit;top=0;left=0;bottom=0;right=0;collapsible=0;dropTarget=0;fillColor=none;points=[[0,0.5],[1,0.5]];portConstraint=eastwest;" vertex="1" parent="IFPszP2dh0mQ25aJr4DG-3">
          <mxGeometry y="200" width="760" height="40" as="geometry" />
        </mxCell>
        <mxCell id="IFPszP2dh0mQ25aJr4DG-20" value="&lt;font style=&quot;font-size: 14px;&quot;&gt;Client&lt;/font&gt;" style="shape=partialRectangle;html=1;whiteSpace=wrap;connectable=0;strokeColor=inherit;overflow=hidden;fillColor=none;top=0;left=0;bottom=0;right=0;pointerEvents=1;align=left;" vertex="1" parent="IFPszP2dh0mQ25aJr4DG-19">
          <mxGeometry width="140" height="40" as="geometry">
            <mxRectangle width="140" height="40" as="alternateBounds" />
          </mxGeometry>
        </mxCell>
        <mxCell id="IFPszP2dh0mQ25aJr4DG-21" value="Creates the command and configures the receiver and invoker." style="shape=partialRectangle;html=1;whiteSpace=wrap;connectable=0;strokeColor=inherit;overflow=hidden;fillColor=none;top=0;left=0;bottom=0;right=0;pointerEvents=1;align=left;fontSize=14;" vertex="1" parent="IFPszP2dh0mQ25aJr4DG-19">
          <mxGeometry x="140" width="620" height="40" as="geometry">
            <mxRectangle width="620" height="40" as="alternateBounds" />
          </mxGeometry>
        </mxCell>
        <mxCell id="IFPszP2dh0mQ25aJr4DG-26" value="Client" style="html=1;whiteSpace=wrap;" vertex="1" parent="1">
          <mxGeometry x="80" y="560" width="120" height="40" as="geometry" />
        </mxCell>
        <mxCell id="IFPszP2dh0mQ25aJr4DG-27" value="Concrete Command" style="html=1;whiteSpace=wrap;" vertex="1" parent="1">
          <mxGeometry x="320" y="560" width="120" height="40" as="geometry" />
        </mxCell>
        <mxCell id="IFPszP2dh0mQ25aJr4DG-28" value="Receiver" style="html=1;whiteSpace=wrap;" vertex="1" parent="1">
          <mxGeometry x="560" y="560" width="120" height="40" as="geometry" />
        </mxCell>
        <mxCell id="IFPszP2dh0mQ25aJr4DG-30" value="&lt;h2 data-start=&quot;1988&quot; data-end=&quot;2027&quot;&gt;Real-Life Analogy: Remote Control&lt;/h2&gt;&lt;ul data-start=&quot;2029&quot; data-end=&quot;2291&quot;&gt;&lt;li&gt;&lt;font style=&quot;font-size: 14px;&quot;&gt;&lt;strong style=&quot;&quot; data-end=&quot;2042&quot; data-start=&quot;2031&quot;&gt;Command&lt;/strong&gt;: Remote button (e.g., PowerButton)&amp;nbsp;&lt;/font&gt;&lt;/li&gt;&lt;li&gt;&lt;font style=&quot;font-size: 14px;&quot;&gt;&lt;strong data-end=&quot;2099&quot; data-start=&quot;2080&quot;&gt;ConcreteCommand&lt;/strong&gt;: PowerOnCommand&lt;/font&gt;&lt;/li&gt;&lt;li&gt;&lt;font style=&quot;font-size: 14px;&quot;&gt;&lt;strong data-end=&quot;2130&quot; data-start=&quot;2118&quot;&gt;Receiver&lt;/strong&gt;: TV (the object that performs the real operation)&lt;/font&gt;&lt;/li&gt;&lt;li&gt;&lt;font style=&quot;font-size: 14px;&quot;&gt;&lt;strong data-end=&quot;2194&quot; data-start=&quot;2183&quot;&gt;Invoker&lt;/strong&gt;: RemoteControl (triggers the button)&lt;/font&gt;&lt;/li&gt;&lt;li&gt;&lt;font style=&quot;font-size: 14px;&quot;&gt;&lt;strong style=&quot;&quot; data-end=&quot;2244&quot; data-start=&quot;2234&quot;&gt;Client&lt;/strong&gt;: User who sets up the remote to control the TV&lt;/font&gt;&lt;/li&gt;&lt;/ul&gt;" style="text;whiteSpace=wrap;html=1;" vertex="1" parent="1">
          <mxGeometry x="40" y="760" width="760" height="160" as="geometry" />
        </mxCell>
        <mxCell id="IFPszP2dh0mQ25aJr4DG-31" value="Invoker" style="html=1;whiteSpace=wrap;" vertex="1" parent="1">
          <mxGeometry x="80" y="680" width="120" height="40" as="geometry" />
        </mxCell>
        <mxCell id="IFPszP2dh0mQ25aJr4DG-32" value="&lt;font style=&quot;font-size: 18px;&quot;&gt;&lt;b style=&quot;&quot;&gt;When to Use the Command Pattern&lt;/b&gt;&lt;/font&gt;&lt;div&gt;&lt;ul&gt;&lt;li&gt;&lt;font style=&quot;font-size: 14px;&quot;&gt;You want to &lt;b&gt;&lt;span style=&quot;&quot; data-end=&quot;3435&quot; data-start=&quot;3411&quot;&gt;parameterize objects&lt;/span&gt; &lt;/b&gt;with operations (e.g., menu systems).&lt;/font&gt;&lt;/li&gt;&lt;li&gt;&lt;font style=&quot;font-size: 14px;&quot;&gt;You need to &lt;strong data-end=&quot;3506&quot; data-start=&quot;3488&quot;&gt;queue requests&lt;/strong&gt;, or &lt;strong data-end=&quot;3518&quot; data-start=&quot;3511&quot;&gt;log&lt;/strong&gt; them for auditing.&lt;/font&gt;&lt;/li&gt;&lt;li&gt;&lt;font style=&quot;font-size: 14px;&quot;&gt;You want to &lt;strong data-end=&quot;3575&quot; data-start=&quot;3552&quot;&gt;implement undo/redo&lt;/strong&gt; functionality.&lt;/font&gt;&lt;/li&gt;&lt;li&gt;&lt;font style=&quot;font-size: 14px;&quot;&gt;You want to &lt;strong data-end=&quot;3617&quot; data-start=&quot;3605&quot;&gt;decouple&lt;/strong&gt; the sender (Invoker) from the receiver.&lt;/font&gt;&lt;/li&gt;&lt;/ul&gt;&lt;/div&gt;" style="text;whiteSpace=wrap;html=1;" vertex="1" parent="1">
          <mxGeometry x="40" y="960" width="760" height="120" as="geometry" />
        </mxCell>
        <mxCell id="IFPszP2dh0mQ25aJr4DG-34" value="&lt;font style=&quot;font-size: 18px;&quot;&gt;&lt;b&gt;Benefits&lt;/b&gt;&lt;br style=&quot;padding: 0px; margin: 0px; font-size: 14px;&quot;&gt;&lt;ul&gt;&lt;li&gt;&lt;font style=&quot;font-size: 18px;&quot;&gt;&lt;span style=&quot;font-size: 14px;&quot;&gt;Loose coupling between &lt;b&gt;Invoker &lt;/b&gt;and &lt;b&gt;Receiver&lt;/b&gt;&lt;/span&gt;&lt;/font&gt;&lt;/li&gt;&lt;li&gt;&lt;font style=&quot;font-size: 18px;&quot;&gt;&lt;span style=&quot;font-size: 14px;&quot;&gt;Easy to &lt;b&gt;add new commands&lt;/b&gt; without changing existing code&lt;/span&gt;&lt;/font&gt;&lt;/li&gt;&lt;li&gt;&lt;font style=&quot;font-size: 18px;&quot;&gt;&lt;span style=&quot;font-size: 14px;&quot;&gt;Supports &lt;b&gt;undo/redo&lt;/b&gt;&lt;/span&gt;&lt;/font&gt;&lt;/li&gt;&lt;li&gt;&lt;font style=&quot;font-size: 18px;&quot;&gt;&lt;span style=&quot;font-size: 14px;&quot;&gt;Commands can be &lt;b&gt;stored, serialized, or queued&lt;/b&gt;&lt;/span&gt;&lt;/font&gt;&lt;/li&gt;&lt;/ul&gt;&lt;/font&gt;" style="text;html=1;align=left;verticalAlign=middle;whiteSpace=wrap;rounded=0;" vertex="1" parent="1">
          <mxGeometry x="40" y="1140" width="760" height="140" as="geometry" />
        </mxCell>
      </root>
    </mxGraphModel>
  </diagram>
</mxfile>
